<?xml version="1.0" encoding="UTF-8" standalone="no"?>
<!DOCTYPE svg PUBLIC "-//W3C//DTD SVG 1.1//EN" "http://www.w3.org/Graphics/SVG/1.1/DTD/svg11.dtd">
<svg height="50" stroke-miterlimit="10" style="fill-rule:nonzero;clip-rule:evenodd;stroke-linecap:round;stroke-linejoin:round;" version="1.1" viewBox="0 0 80.3982 20.302" width="200" xml:space="preserve" xmlns="http://www.w3.org/2000/svg" xmlns:xlink="http://www.w3.org/1999/xlink">
<defs/>
<g id="Untitled">
<g opacity="1">
<path d="M5.0559 0.25L75.3418 0.25C77.996 0.25 80.1482 2.33604 80.1482 4.90934L80.1482 15.3927C80.1482 17.966 77.996 20.052 75.3418 20.052L5.0559 20.052C2.4017 20.052 0.25 17.966 0.25 15.3927L0.25 4.90934C0.25 2.33604 2.4017 0.25 5.0559 0.25Z" fill="#000000" fill-rule="nonzero" opacity="1" stroke="#ffffff" stroke-linecap="butt" stroke-linejoin="miter" stroke-width="0.5"/>
<g opacity="1">
<g opacity="1">
<g fill="#ffffff" opacity="1" stroke="none">
<path d="M21.1253 12.0756L21.1253 7.17557L22.0175 7.17557L22.0175 12.0756L21.1253 12.0756Z"/>
<path d="M22.9882 12.0756L22.9882 8.38985L23.6825 8.38985L23.7754 8.83413L23.8104 8.83413C23.9301 8.66248 24.0776 8.53386 24.2528 8.44826C24.4279 8.36265 24.6153 8.31985 24.8147 8.31985C25.0805 8.31985 25.3165 8.38011 25.5227 8.50065C25.7288 8.62118 25.8898 8.79421 26.0058 9.01974C26.1217 9.24527 26.1797 9.50959 26.1797 9.81271L26.1797 12.0756L25.3575 12.0756L25.3575 9.90415C25.3575 9.72623 25.3274 9.57445 25.2672 9.44882C25.2069 9.32318 25.1202 9.22719 25.0069 9.16083C24.8936 9.09448 24.7605 9.0613 24.6075 9.0613C24.4529 9.0613 24.3155 9.09802 24.1951 9.17144C24.0748 9.24487 23.9806 9.34599 23.9125 9.47479C23.8444 9.6036 23.8104 9.74672 23.8104 9.90415L23.8104 12.0756L22.9882 12.0756Z"/>
<path d="M28.3254 12.1456C28.0386 12.1456 27.7858 12.1001 27.5669 12.0092C27.3481 11.9183 27.1707 11.7864 27.0347 11.6133C26.8988 11.4403 26.809 11.2337 26.7654 10.9934L27.6454 10.9934C27.6755 11.1217 27.7515 11.2261 27.8735 11.3064C27.9955 11.3868 28.1461 11.427 28.3254 11.427C28.5705 11.427 28.7509 11.3901 28.8667 11.3164C28.9825 11.2427 29.0404 11.1462 29.0404 11.027C29.0404 10.9376 29.0072 10.8655 28.9409 10.8106C28.8746 10.7557 28.7903 10.7123 28.688 10.6802C28.5858 10.6482 28.4465 10.6134 28.2703 10.5758C27.9844 10.5152 27.7501 10.4506 27.5676 10.3823C27.3851 10.3139 27.227 10.2017 27.0935 10.0455C26.96 9.88936 26.8933 9.67533 26.8933 9.40343C26.8933 9.20174 26.9496 9.01892 27.0622 8.85497C27.1748 8.69101 27.3394 8.56084 27.5561 8.46444C27.7727 8.36805 28.0291 8.31985 28.3254 8.31985C28.601 8.31985 28.844 8.36094 29.0542 8.44311C29.2645 8.52529 29.4368 8.64664 29.5712 8.80717C29.7057 8.9677 29.7947 9.16193 29.8383 9.38987L28.9583 9.38987C28.9266 9.28355 28.8596 9.1984 28.7572 9.13442C28.6548 9.07044 28.5108 9.03844 28.3254 9.03844C28.1358 9.03844 27.9906 9.0714 27.8897 9.13732C27.7887 9.20323 27.7383 9.29194 27.7383 9.40343C27.7383 9.4961 27.7723 9.57068 27.8402 9.62715C27.9082 9.68363 27.9933 9.72869 28.0955 9.76234C28.1977 9.79599 28.3394 9.8324 28.5205 9.87155C28.8048 9.93382 29.0374 9.99876 29.2183 10.0663C29.3993 10.1339 29.5557 10.2446 29.6876 10.3983C29.8195 10.552 29.8854 10.7616 29.8854 11.027C29.8854 11.2533 29.8237 11.4507 29.7002 11.6193C29.5767 11.7879 29.3981 11.9178 29.1645 12.0089C28.9308 12.1 28.6511 12.1456 28.3254 12.1456Z"/>
<path d="M31.8897 12.0756C31.6622 12.0756 31.469 12.0344 31.3099 11.952C31.1509 11.8696 31.0294 11.7519 30.9456 11.599C30.8617 11.4461 30.8197 11.2635 30.8197 11.0513L30.8197 9.15416L30.2369 9.15416L30.2369 8.38985L30.8197 8.38985L30.9354 7.40985L31.6419 7.40985L31.6419 8.38985L32.5412 8.38985L32.5412 9.15416L31.6419 9.15416L31.6419 10.937C31.6419 11.0451 31.6772 11.1345 31.7479 11.2052C31.8186 11.2759 31.908 11.3113 32.0162 11.3113L32.5412 11.3113L32.5412 12.0756L31.8897 12.0756Z"/>
<path d="M34.2333 12.1456C33.9752 12.1456 33.749 12.0966 33.5546 11.9986C33.3602 11.9006 33.211 11.7649 33.1068 11.5915C33.0026 11.4181 32.9505 11.2218 32.9505 11.0027C32.9505 10.7836 33.0049 10.5873 33.1138 10.4139C33.2226 10.2405 33.3828 10.1048 33.5942 10.0068C33.8056 9.90885 34.0613 9.85985 34.3612 9.85985L35.5125 9.85985L35.5125 10.487L34.384 10.487C34.1819 10.487 34.0294 10.53 33.9267 10.6161C33.824 10.7022 33.7726 10.8158 33.7726 10.957C33.7726 11.1057 33.8258 11.225 33.9321 11.3149C34.0383 11.4049 34.1921 11.4498 34.3933 11.4498C34.5702 11.4498 34.7258 11.415 34.8603 11.3453C34.9948 11.2757 35.0992 11.1798 35.1734 11.0578C35.2476 10.9358 35.2848 10.7968 35.2848 10.6406L35.2848 9.66057C35.2848 9.46362 35.2203 9.3107 35.0913 9.20179C34.9623 9.09289 34.7884 9.03844 34.5698 9.03844C34.4053 9.03844 34.2656 9.07445 34.1507 9.14645C34.0358 9.21846 33.9565 9.31173 33.9126 9.42629L33.0783 9.42629C33.1593 9.09656 33.3287 8.82972 33.5868 8.62577C33.8448 8.42182 34.1801 8.31985 34.5926 8.31985C34.9063 8.31985 35.1765 8.37352 35.4033 8.48085C35.6301 8.58818 35.804 8.74442 35.9252 8.94958C36.0463 9.15473 36.1069 9.39934 36.1069 9.68343L36.1069 12.0756L35.4126 12.0756L35.3198 11.6313L35.2848 11.6313C35.1993 11.7652 35.0661 11.8843 34.8851 11.9888C34.7042 12.0933 34.4869 12.1456 34.2333 12.1456Z"/>
<path d="M36.9955 12.0756L36.9955 7.17557L37.8177 7.17557L37.8177 12.0756L36.9955 12.0756Z"/>
<path d="M38.7762 12.0756L38.7762 7.17557L39.5984 7.17557L39.5984 12.0756L38.7762 12.0756Z"/>
<path d="M42.1044 12.0756L42.1044 8.38657L42.9304 8.38657L42.9304 12.0756L42.1044 12.0756ZM42.5174 7.86157C42.3774 7.86157 42.2596 7.81373 42.1639 7.71807C42.0683 7.6224 42.0204 7.5069 42.0204 7.37157C42.0204 7.23157 42.0683 7.11373 42.1639 7.01807C42.2596 6.9224 42.3774 6.87457 42.5174 6.87457C42.6528 6.87457 42.7683 6.9224 42.8639 7.01807C42.9596 7.11373 43.0074 7.23157 43.0074 7.37157C43.0074 7.5069 42.9596 7.6224 42.8639 7.71807C42.7683 7.81373 42.6528 7.86157 42.5174 7.86157Z"/>
<path d="M43.8185 12.0756L43.8185 8.38985L44.5128 8.38985L44.6056 8.83413L44.6406 8.83413C44.7604 8.66248 44.9078 8.53386 45.083 8.44826C45.2582 8.36265 45.4455 8.31985 45.6449 8.31985C45.9108 8.31985 46.1468 8.38011 46.3529 8.50065C46.559 8.62118 46.7201 8.79421 46.836 9.01974C46.9519 9.24527 47.0099 9.50959 47.0099 9.81271L47.0099 12.0756L46.1877 12.0756L46.1877 9.90415C46.1877 9.72623 46.1576 9.57445 46.0974 9.44882C46.0372 9.32318 45.9504 9.22719 45.8371 9.16083C45.7239 9.09448 45.5907 9.0613 45.4378 9.0613C45.2832 9.0613 45.1457 9.09802 45.0254 9.17144C44.905 9.24487 44.8108 9.34599 44.7427 9.47479C44.6747 9.6036 44.6406 9.74672 44.6406 9.90415L44.6406 12.0756L43.8185 12.0756Z"/>
<path d="M52.2978 12.0756L50.9412 10.0917L51.9354 10.0917L53.3057 12.0756L52.2978 12.0756ZM49.5314 12.0756L49.5314 7.17557L51.5585 7.17557C51.8803 7.17557 52.162 7.24045 52.4037 7.3702C52.6454 7.49996 52.833 7.68252 52.9667 7.9179C53.1003 8.15327 53.1671 8.42631 53.1671 8.73701C53.1671 9.04464 53.0987 9.31538 52.9621 9.54922C52.8254 9.78307 52.6446 9.96259 52.4197 10.0878C52.1949 10.213 51.955 10.2756 51.7003 10.2756L50.4235 10.2756L50.4235 12.0756L49.5314 12.0756ZM51.5007 9.49913C51.6572 9.49913 51.7937 9.46785 51.9103 9.40529C52.0268 9.34272 52.1167 9.25398 52.18 9.13907C52.2433 9.02415 52.2749 8.89013 52.2749 8.73701C52.2749 8.50418 52.2046 8.31896 52.0639 8.18133C51.9233 8.0437 51.7355 7.97488 51.5007 7.97488L50.4235 7.97488L50.4235 9.49913L51.5007 9.49913Z"/>
<path d="M54.8485 12.1456C54.5904 12.1456 54.3641 12.0966 54.1698 11.9986C53.9754 11.9006 53.8262 11.7649 53.722 11.5915C53.6178 11.4181 53.5657 11.2218 53.5657 11.0027C53.5657 10.7836 53.6201 10.5873 53.729 10.4139C53.8378 10.2405 53.998 10.1048 54.2094 10.0068C54.4208 9.90885 54.6765 9.85985 54.9764 9.85985L56.1277 9.85985L56.1277 10.487L54.9992 10.487C54.797 10.487 54.6446 10.53 54.5419 10.6161C54.4392 10.7022 54.3878 10.8158 54.3878 10.957C54.3878 11.1057 54.441 11.225 54.5472 11.3149C54.6535 11.4049 54.8073 11.4498 55.0085 11.4498C55.1854 11.4498 55.341 11.415 55.4755 11.3453C55.61 11.2757 55.7144 11.1798 55.7886 11.0578C55.8628 10.9358 55.8999 10.7968 55.8999 10.6406L55.8999 9.66057C55.8999 9.46362 55.8354 9.3107 55.7065 9.20179C55.5775 9.09289 55.4036 9.03844 55.185 9.03844C55.0205 9.03844 54.8808 9.07445 54.7659 9.14645C54.651 9.21846 54.5717 9.31173 54.5278 9.42629L53.6935 9.42629C53.7745 9.09656 53.9439 8.82972 54.2019 8.62577C54.46 8.42182 54.7953 8.31985 55.2078 8.31985C55.5215 8.31985 55.7917 8.37352 56.0185 8.48085C56.2453 8.58818 56.4192 8.74442 56.5404 8.94958C56.6615 9.15473 56.7221 9.39934 56.7221 9.68343L56.7221 12.0756L56.0278 12.0756L55.9349 11.6313L55.8999 11.6313C55.8145 11.7652 55.6813 11.8843 55.5003 11.9888C55.3194 12.0933 55.1021 12.1456 54.8485 12.1456Z"/>
<path d="M57.9607 13.4756L58.5253 12.0756L57.0157 8.38985L57.9003 8.38985L58.9305 11.0205L58.9655 11.0205L59.9694 8.38985L60.8357 8.38985L58.8179 13.4756L57.9607 13.4756Z"/>
<path d="M62.7607 12.1456C62.402 12.1456 62.0898 12.0705 61.824 11.9205C61.5583 11.7704 61.3528 11.5527 61.2074 11.2673C61.062 10.982 60.9893 10.6371 60.9893 10.2327C60.9893 9.82831 61.062 9.48344 61.2074 9.19808C61.3528 8.91272 61.5583 8.69501 61.824 8.54494C62.0898 8.39488 62.402 8.31985 62.7607 8.31985C63.0581 8.31985 63.3181 8.37206 63.5408 8.47647C63.7636 8.58089 63.9461 8.72417 64.0885 8.90632C64.2309 9.08846 64.3357 9.29989 64.4029 9.54058L63.5686 9.54058C63.4826 9.38155 63.3744 9.26191 63.2439 9.18167C63.1135 9.10142 62.9524 9.0613 62.7607 9.0613C62.5733 9.0613 62.4081 9.10582 62.2652 9.19485C62.1222 9.28388 62.0108 9.41628 61.9311 9.59204C61.8513 9.76781 61.8115 9.98137 61.8115 10.2327C61.8115 10.4841 61.8513 10.6976 61.9311 10.8733C62.0108 11.049 62.1222 11.1814 62.2652 11.2705C62.4081 11.3596 62.5733 11.4041 62.7607 11.4041C62.9524 11.4041 63.1135 11.3636 63.2439 11.2825C63.3744 11.2015 63.4826 11.0823 63.5686 10.9248L64.4029 10.9248C64.3357 11.1655 64.2309 11.3769 64.0885 11.559C63.9461 11.7412 63.7636 11.8845 63.5408 11.9889C63.3181 12.0934 63.0581 12.1456 62.7607 12.1456Z"/>
<path d="M66.1422 12.1456C65.8841 12.1456 65.6578 12.0966 65.4635 11.9986C65.2691 11.9006 65.1198 11.7649 65.0156 11.5915C64.9114 11.4181 64.8593 11.2218 64.8593 11.0027C64.8593 10.7836 64.9138 10.5873 65.0226 10.4139C65.1315 10.2405 65.2916 10.1048 65.503 10.0068C65.7145 9.90885 65.9701 9.85985 66.27 9.85985L67.4213 9.85985L67.4213 10.487L66.2929 10.487C66.0907 10.487 65.9382 10.53 65.8355 10.6161C65.7328 10.7022 65.6815 10.8158 65.6815 10.957C65.6815 11.1057 65.7346 11.225 65.8409 11.3149C65.9472 11.4049 66.1009 11.4498 66.3022 11.4498C66.479 11.4498 66.6347 11.415 66.7692 11.3453C66.9037 11.2757 67.008 11.1798 67.0823 11.0578C67.1565 10.9358 67.1936 10.7968 67.1936 10.6406L67.1936 9.66057C67.1936 9.46362 67.1291 9.3107 67.0001 9.20179C66.8711 9.09289 66.6973 9.03844 66.4786 9.03844C66.3141 9.03844 66.1744 9.07445 66.0595 9.14645C65.9447 9.21846 65.8653 9.31173 65.8215 9.42629L64.9872 9.42629C65.0681 9.09656 65.2376 8.82972 65.4956 8.62577C65.7536 8.42182 66.0889 8.31985 66.5015 8.31985C66.8152 8.31985 67.0854 8.37352 67.3122 8.48085C67.5389 8.58818 67.7129 8.74442 67.834 8.94958C67.9552 9.15473 68.0158 9.39934 68.0158 9.68343L68.0158 12.0756L67.3215 12.0756L67.2286 11.6313L67.1936 11.6313C67.1081 11.7652 66.9749 11.8843 66.794 11.9888C66.6131 12.0933 66.3958 12.1456 66.1422 12.1456Z"/>
<path d="M70.1615 12.1456C69.8747 12.1456 69.6219 12.1001 69.403 12.0092C69.1842 11.9183 69.0068 11.7864 68.8708 11.6133C68.7349 11.4403 68.6451 11.2337 68.6015 10.9934L69.4815 10.9934C69.5116 11.1217 69.5876 11.2261 69.7096 11.3064C69.8316 11.3868 69.9822 11.427 70.1615 11.427C70.4066 11.427 70.587 11.3901 70.7028 11.3164C70.8186 11.2427 70.8765 11.1462 70.8765 11.027C70.8765 10.9376 70.8433 10.8655 70.777 10.8106C70.7107 10.7557 70.6264 10.7123 70.5241 10.6802C70.4219 10.6482 70.2826 10.6134 70.1064 10.5758C69.8205 10.5152 69.5862 10.4506 69.4037 10.3823C69.2212 10.3139 69.0631 10.2017 68.9296 10.0455C68.7961 9.88936 68.7293 9.67533 68.7293 9.40343C68.7293 9.20174 68.7857 9.01892 68.8983 8.85497C69.0109 8.69101 69.1755 8.56084 69.3922 8.46444C69.6088 8.36805 69.8652 8.31985 70.1615 8.31985C70.4371 8.31985 70.6801 8.36094 70.8903 8.44311C71.1006 8.52529 71.2729 8.64664 71.4073 8.80717C71.5418 8.9677 71.6308 9.16193 71.6744 9.38987L70.7943 9.38987C70.7627 9.28355 70.6957 9.1984 70.5933 9.13442C70.4908 9.07044 70.3469 9.03844 70.1615 9.03844C69.9719 9.03844 69.8267 9.0714 69.7258 9.13732C69.6248 9.20323 69.5744 9.29194 69.5744 9.40343C69.5744 9.4961 69.6084 9.57068 69.6763 9.62715C69.7443 9.68363 69.8294 9.72869 69.9316 9.76234C70.0338 9.79599 70.1755 9.8324 70.3566 9.87155C70.6409 9.93382 70.8735 9.99876 71.0544 10.0663C71.2353 10.1339 71.3918 10.2446 71.5237 10.3983C71.6556 10.552 71.7215 10.7616 71.7215 11.027C71.7215 11.2533 71.6598 11.4507 71.5363 11.6193C71.4128 11.7879 71.2342 11.9178 71.0006 12.0089C70.7669 12.1 70.4872 12.1456 70.1615 12.1456Z"/>
<path d="M73.7258 12.0756C73.4983 12.0756 73.3051 12.0344 73.146 11.952C72.987 11.8696 72.8655 11.7519 72.7816 11.599C72.6978 11.4461 72.6558 11.2635 72.6558 11.0513L72.6558 9.15416L72.073 9.15416L72.073 8.38985L72.6558 8.38985L72.7715 7.40985L73.478 7.40985L73.478 8.38985L74.3773 8.38985L74.3773 9.15416L73.478 9.15416L73.478 10.937C73.478 11.0451 73.5133 11.1345 73.584 11.2052C73.6547 11.2759 73.7441 11.3113 73.8523 11.3113L74.3773 11.3113L74.3773 12.0756L73.7258 12.0756Z"/>
</g>
<g opacity="1">
<clipPath clip-rule="nonzero" id="ClipPath">
<path d="M4.24042 2.72183L19.0989 2.72183L19.0989 2.72183L19.0989 17.5803L19.0989 17.5803L4.24042 17.5803L4.24042 17.5803L4.24042 2.72183L4.24042 2.72183Z"/>
</clipPath>
<g clip-path="url(#ClipPath)">
<path d="M7.95502 12.3152L7.95502 13.8657L4.23702 10.1477L5.01612 9.37447L7.95502 12.3152ZM9.50562 13.8657L7.95502 13.8657L11.6731 17.5837L12.4488 16.808L9.50562 13.8657ZM18.324 10.926L19.0989 10.1511L11.6697 2.72183L10.8948 3.4967L13.8303 6.43647L12.0559 6.43647L10.0067 4.38897L9.23102 5.16387L10.5069 6.43987L9.61882 6.43987L9.61882 12.2053L15.3843 12.2053L15.3843 11.3181L16.6602 12.594L17.4351 11.8183L15.3843 9.76317L15.3843 7.98867L18.324 10.926ZM8.34292 6.04857L7.56802 6.82427L8.39952 7.65577L9.17442 6.88007L8.34292 6.04857ZM14.9407 12.6464L14.1683 13.4213L14.9998 14.2528L15.7755 13.4778L14.9407 12.6464ZM6.67912 7.71237L5.90422 8.48727L7.95502 10.539L7.95502 8.98747L6.67912 7.71237ZM12.8324 13.8657L11.2818 13.8657L13.3335 15.9165L14.1083 15.1417L12.8324 13.8657Z" fill="#ff6363" fill-rule="evenodd" opacity="1" stroke="none"/>
</g>
</g>
</g>
</g>
</g>
</g>
</svg>
