<?xml version="1.0" encoding="UTF-8" standalone="no"?>
<!DOCTYPE svg PUBLIC "-//W3C//DTD SVG 1.1//EN" "http://www.w3.org/Graphics/SVG/1.1/DTD/svg11.dtd">
<svg height="50" stroke-miterlimit="10" style="fill-rule:nonzero;clip-rule:evenodd;stroke-linecap:round;stroke-linejoin:round;" version="1.1" viewBox="0 0 80.3982 20.302" width="200" xml:space="preserve" xmlns="http://www.w3.org/2000/svg" xmlns:xlink="http://www.w3.org/1999/xlink">
<defs/>
<g id="Layer">
<g opacity="1">
<path d="M5.0559 0.25L75.3418 0.25C77.996 0.25 80.1482 2.33604 80.1482 4.90934L80.1482 15.3927C80.1482 17.966 77.996 20.052 75.3418 20.052L5.0559 20.052C2.4017 20.052 0.25 17.966 0.25 15.3927L0.25 4.90934C0.25 2.33604 2.4017 0.25 5.0559 0.25Z" fill="#ffffff" fill-rule="nonzero" opacity="1" stroke="#000000" stroke-linecap="butt" stroke-linejoin="miter" stroke-width="0.5"/>
<g opacity="1">
<clipPath clip-rule="nonzero" id="ClipPath">
<path d="M-84.4412-21.1659L143.559-21.1659L143.559-21.1659L143.559 206.834L143.559 206.834L-84.4412 206.834L-84.4412 206.834L-84.4412-21.1659L-84.4412-21.1659Z"/>
</clipPath>
<g clip-path="url(#ClipPath)">
<path d="M18.5142 10.1517L17.7392 10.9275L14.799 7.98734L14.799 6.43654L18.5142 10.1517ZM11.0872 2.72214L10.3122 3.49713L13.2516 6.43654L14.8024 6.43654L11.0872 2.72214ZM9.4239 4.38534L8.6481 5.16124L9.9243 6.43654L11.475 6.43654L9.4239 4.38534ZM14.8024 9.76464L14.8024 11.3155L16.0734 12.5907L16.8493 11.8158L14.8024 9.76464ZM14.3553 12.6448L14.799 12.2011L9.0326 12.2011L9.0326 6.43654L8.5889 6.88104L7.7565 6.05284L6.9815 6.82784L7.8131 7.66024L7.3686 8.10054L7.3686 8.98884L6.0933 7.71264L5.3174 8.48854L7.3686 10.5396L7.3686 12.3144L4.4292 9.37674L3.6542 10.1517L11.0872 17.5821L11.863 16.8071L8.9228 13.8669L10.6975 13.8669L12.7487 15.9189L13.5245 15.143L12.2484 13.8669L13.1366 13.8669L13.5803 13.4232L14.4127 14.2548L15.1878 13.4798L14.3553 12.6448Z" fill="#ff6363" fill-rule="evenodd" opacity="1" stroke="none"/>
</g>
</g>
<g fill="#000000" opacity="1" stroke="none">
<path d="M21.1264 12.08L21.1264 7.18L22.0186 7.18L22.0186 12.08L21.1264 12.08Z"/>
<path d="M22.9893 12.08L22.9893 8.39428L23.6836 8.39428L23.7765 8.83856L23.8115 8.83856C23.9312 8.66692 24.0787 8.53829 24.2538 8.45269C24.429 8.36708 24.6163 8.32428 24.8158 8.32428C25.0816 8.32428 25.3176 8.38455 25.5237 8.50508C25.7299 8.62561 25.8909 8.79864 26.0069 9.02417C26.1228 9.2497 26.1808 9.51403 26.1808 9.81714L26.1808 12.08L25.3586 12.08L25.3586 9.90858C25.3586 9.73066 25.3285 9.57889 25.2682 9.45325C25.208 9.32761 25.1213 9.23162 25.008 9.16527C24.8947 9.09891 24.7616 9.06573 24.6086 9.06573C24.454 9.06573 24.3166 9.10245 24.1962 9.17587C24.0759 9.2493 23.9816 9.35042 23.9136 9.47923C23.8455 9.60803 23.8115 9.75115 23.8115 9.90858L23.8115 12.08L22.9893 12.08Z"/>
<path d="M28.3265 12.15C28.0397 12.15 27.7869 12.1046 27.568 12.0137C27.3492 11.9228 27.1718 11.7908 27.0358 11.6178C26.8999 11.4447 26.8101 11.2381 26.7665 10.9978L27.6465 10.9978C27.6765 11.1262 27.7526 11.2305 27.8746 11.3109C27.9965 11.3912 28.1472 11.4314 28.3265 11.4314C28.5716 11.4314 28.752 11.3945 28.8678 11.3208C28.9836 11.2471 29.0415 11.1506 29.0415 11.0314C29.0415 10.942 29.0083 10.8699 28.942 10.815C28.8757 10.7602 28.7914 10.7167 28.6891 10.6846C28.5869 10.6526 28.4476 10.6178 28.2714 10.5802C27.9855 10.5196 27.7512 10.4551 27.5687 10.3867C27.3861 10.3184 27.2281 10.2061 27.0946 10.0499C26.9611 9.89379 26.8943 9.67977 26.8943 9.40786C26.8943 9.20617 26.9506 9.02335 27.0633 8.8594C27.1759 8.69545 27.3405 8.56527 27.5571 8.46887C27.7738 8.37248 28.0302 8.32428 28.3265 8.32428C28.6021 8.32428 28.8451 8.36537 29.0553 8.44755C29.2656 8.52972 29.4379 8.65108 29.5723 8.8116C29.7067 8.97213 29.7958 9.16636 29.8394 9.3943L28.9593 9.3943C28.9277 9.28798 28.8607 9.20284 28.7582 9.13885C28.6558 9.07487 28.5119 9.04287 28.3265 9.04287C28.1369 9.04287 27.9917 9.07583 27.8907 9.14175C27.7898 9.20767 27.7394 9.29637 27.7394 9.40786C27.7394 9.50054 27.7733 9.57511 27.8413 9.63159C27.9093 9.68806 27.9944 9.73312 28.0966 9.76677C28.1988 9.80042 28.3405 9.83683 28.5216 9.87598C28.8059 9.93826 29.0385 10.0032 29.2194 10.0708C29.4003 10.1384 29.5567 10.249 29.6886 10.4027C29.8206 10.5564 29.8865 10.766 29.8865 11.0314C29.8865 11.2577 29.8248 11.4551 29.7013 11.6237C29.5778 11.7924 29.3992 11.9222 29.1656 12.0133C28.9319 12.1044 28.6522 12.15 28.3265 12.15Z"/>
<path d="M31.8908 12.08C31.6633 12.08 31.4701 12.0388 31.311 11.9564C31.152 11.874 31.0305 11.7564 30.9466 11.6035C30.8627 11.4505 30.8208 11.268 30.8208 11.0557L30.8208 9.15859L30.2379 9.15859L30.2379 8.39428L30.8208 8.39428L30.9365 7.41428L31.643 7.41428L31.643 8.39428L32.5423 8.39428L32.5423 9.15859L31.643 9.15859L31.643 10.9414C31.643 11.0495 31.6783 11.139 31.749 11.2096C31.8197 11.2803 31.9091 11.3157 32.0173 11.3157L32.5423 11.3157L32.5423 12.08L31.8908 12.08Z"/>
<path d="M34.2344 12.15C33.9763 12.15 33.75 12.101 33.5557 12.003C33.3613 11.905 33.212 11.7693 33.1079 11.5959C33.0037 11.4225 32.9516 11.2263 32.9516 11.0071C32.9516 10.788 33.006 10.5918 33.1149 10.4184C33.2237 10.245 33.3839 10.1093 33.5953 10.0113C33.8067 9.91328 34.0624 9.86428 34.3623 9.86428L35.5136 9.86428L35.5136 10.4914L34.3851 10.4914C34.1829 10.4914 34.0305 10.5345 33.9278 10.6206C33.8251 10.7066 33.7737 10.8203 33.7737 10.9614C33.7737 11.1101 33.8269 11.2294 33.9331 11.3194C34.0394 11.4093 34.1932 11.4543 34.3944 11.4543C34.5713 11.4543 34.7269 11.4194 34.8614 11.3498C34.9959 11.2801 35.1003 11.1843 35.1745 11.0623C35.2487 10.9403 35.2858 10.8012 35.2858 10.645L35.2858 9.665C35.2858 9.46805 35.2213 9.31513 35.0924 9.20623C34.9634 9.09733 34.7895 9.04287 34.5709 9.04287C34.4064 9.04287 34.2667 9.07888 34.1518 9.15088C34.0369 9.22289 33.9575 9.31617 33.9137 9.43072L33.0794 9.43072C33.1604 9.10099 33.3298 8.83415 33.5878 8.6302C33.8459 8.42625 34.1811 8.32428 34.5937 8.32428C34.9074 8.32428 35.1776 8.37795 35.4044 8.48528C35.6312 8.59261 35.8051 8.74886 35.9263 8.95401C36.0474 9.15916 36.108 9.40378 36.108 9.68786L36.108 12.08L35.4137 12.08L35.3208 11.6357L35.2858 11.6357C35.2004 11.7696 35.0672 11.8888 34.8862 11.9933C34.7053 12.0978 34.488 12.15 34.2344 12.15Z"/>
<path d="M36.9966 12.08L36.9966 7.18L37.8188 7.18L37.8188 12.08L36.9966 12.08Z"/>
<path d="M38.7773 12.08L38.7773 7.18L39.5995 7.18L39.5995 12.08L38.7773 12.08Z"/>
<path d="M42.1055 12.08L42.1055 8.391L42.9315 8.391L42.9315 12.08L42.1055 12.08ZM42.5185 7.866C42.3785 7.866 42.2607 7.81817 42.165 7.7225C42.0694 7.62683 42.0215 7.51133 42.0215 7.376C42.0215 7.236 42.0694 7.11817 42.165 7.0225C42.2607 6.92683 42.3785 6.879 42.5185 6.879C42.6539 6.879 42.7694 6.92683 42.865 7.0225C42.9607 7.11817 43.0085 7.236 43.0085 7.376C43.0085 7.51133 42.9607 7.62683 42.865 7.7225C42.7694 7.81817 42.6539 7.866 42.5185 7.866Z"/>
<path d="M43.8195 12.08L43.8195 8.39428L44.5139 8.39428L44.6067 8.83856L44.6417 8.83856C44.7614 8.66692 44.9089 8.53829 45.0841 8.45269C45.2593 8.36708 45.4466 8.32428 45.646 8.32428C45.9119 8.32428 46.1478 8.38455 46.354 8.50508C46.5601 8.62561 46.7212 8.79864 46.8371 9.02417C46.953 9.2497 47.011 9.51403 47.011 9.81714L47.011 12.08L46.1888 12.08L46.1888 9.90858C46.1888 9.73066 46.1587 9.57889 46.0985 9.45325C46.0383 9.32761 45.9515 9.23162 45.8382 9.16527C45.725 9.09891 45.5918 9.06573 45.4388 9.06573C45.2843 9.06573 45.1468 9.10245 45.0264 9.17587C44.9061 9.2493 44.8119 9.35042 44.7438 9.47923C44.6758 9.60803 44.6417 9.75115 44.6417 9.90858L44.6417 12.08L43.8195 12.08Z"/>
<path d="M52.2989 12.08L50.9423 10.0962L51.9365 10.0962L53.3067 12.08L52.2989 12.08ZM49.5324 12.08L49.5324 7.18L51.5596 7.18C51.8814 7.18 52.1631 7.24488 52.4048 7.37463C52.6465 7.50439 52.8341 7.68695 52.9677 7.92233C53.1014 8.1577 53.1682 8.43074 53.1682 8.74144C53.1682 9.04907 53.0998 9.31981 52.9631 9.55366C52.8265 9.7875 52.6457 9.96702 52.4208 10.0922C52.1959 10.2174 51.9561 10.28 51.7013 10.28L50.4246 10.28L50.4246 12.08L49.5324 12.08ZM51.5017 9.50356C51.6583 9.50356 51.7948 9.47228 51.9113 9.40972C52.0279 9.34716 52.1178 9.25842 52.1811 9.1435C52.2444 9.02858 52.276 8.89456 52.276 8.74144C52.276 8.50861 52.2057 8.32339 52.065 8.18576C51.9244 8.04813 51.7366 7.97931 51.5017 7.97931L50.4246 7.97931L50.4246 9.50356L51.5017 9.50356Z"/>
<path d="M54.8496 12.15C54.5915 12.15 54.3652 12.101 54.1709 12.003C53.9765 11.905 53.8272 11.7693 53.723 11.5959C53.6188 11.4225 53.5667 11.2263 53.5667 11.0071C53.5667 10.788 53.6212 10.5918 53.73 10.4184C53.8389 10.245 53.999 10.1093 54.2105 10.0113C54.4219 9.91328 54.6776 9.86428 54.9775 9.86428L56.1287 9.86428L56.1287 10.4914L55.0003 10.4914C54.7981 10.4914 54.6457 10.5345 54.543 10.6206C54.4403 10.7066 54.3889 10.8203 54.3889 10.9614C54.3889 11.1101 54.442 11.2294 54.5483 11.3194C54.6546 11.4093 54.8084 11.4543 55.0096 11.4543C55.1864 11.4543 55.3421 11.4194 55.4766 11.3498C55.6111 11.2801 55.7154 11.1843 55.7897 11.0623C55.8639 10.9403 55.901 10.8012 55.901 10.645L55.901 9.665C55.901 9.46805 55.8365 9.31513 55.7075 9.20623C55.5785 9.09733 55.4047 9.04287 55.186 9.04287C55.0215 9.04287 54.8818 9.07888 54.767 9.15088C54.6521 9.22289 54.5727 9.31617 54.5289 9.43072L53.6946 9.43072C53.7755 9.10099 53.945 8.83415 54.203 8.6302C54.461 8.42625 54.7963 8.32428 55.2089 8.32428C55.5226 8.32428 55.7928 8.37795 56.0196 8.48528C56.2464 8.59261 56.4203 8.74886 56.5415 8.95401C56.6626 9.15916 56.7232 9.40378 56.7232 9.68786L56.7232 12.08L56.0289 12.08L55.936 11.6357L55.901 11.6357C55.8156 11.7696 55.6824 11.8888 55.5014 11.9933C55.3205 12.0978 55.1032 12.15 54.8496 12.15Z"/>
<path d="M57.9618 13.48L58.5264 12.08L57.0168 8.39428L57.9014 8.39428L58.9316 11.025L58.9666 11.025L59.9704 8.39428L60.8368 8.39428L58.8189 13.48L57.9618 13.48Z"/>
<path d="M62.7618 12.15C62.4031 12.15 62.0908 12.075 61.8251 11.9249C61.5594 11.7748 61.3539 11.5571 61.2085 11.2718C61.0631 10.9864 60.9904 10.6415 60.9904 10.2371C60.9904 9.83274 61.0631 9.48787 61.2085 9.20251C61.3539 8.91715 61.5594 8.69944 61.8251 8.54937C62.0908 8.39931 62.4031 8.32428 62.7618 8.32428C63.0592 8.32428 63.3192 8.37649 63.5419 8.48091C63.7647 8.58532 63.9472 8.7286 64.0896 8.91075C64.232 9.0929 64.3368 9.30432 64.404 9.54502L63.5697 9.54502C63.4837 9.38598 63.3755 9.26635 63.245 9.1861C63.1146 9.10586 62.9535 9.06573 62.7618 9.06573C62.5744 9.06573 62.4092 9.11025 62.2662 9.19928C62.1232 9.28831 62.0119 9.42071 61.9321 9.59648C61.8524 9.77224 61.8125 9.9858 61.8125 10.2371C61.8125 10.4885 61.8524 10.702 61.9321 10.8777C62.0119 11.0535 62.1232 11.1859 62.2662 11.2749C62.4092 11.364 62.5744 11.4085 62.7618 11.4085C62.9535 11.4085 63.1146 11.368 63.245 11.287C63.3755 11.2059 63.4837 11.0867 63.5697 10.9293L64.404 10.9293C64.3368 11.1699 64.232 11.3813 64.0896 11.5635C63.9472 11.7457 63.7647 11.889 63.5419 11.9934C63.3192 12.0978 63.0592 12.15 62.7618 12.15Z"/>
<path d="M66.1433 12.15C65.8851 12.15 65.6589 12.101 65.4645 12.003C65.2702 11.905 65.1209 11.7693 65.0167 11.5959C64.9125 11.4225 64.8604 11.2263 64.8604 11.0071C64.8604 10.788 64.9148 10.5918 65.0237 10.4184C65.1326 10.245 65.2927 10.1093 65.5041 10.0113C65.7156 9.91328 65.9712 9.86428 66.2711 9.86428L67.4224 9.86428L67.4224 10.4914L66.294 10.4914C66.0918 10.4914 65.9393 10.5345 65.8366 10.6206C65.7339 10.7066 65.6826 10.8203 65.6826 10.9614C65.6826 11.1101 65.7357 11.2294 65.842 11.3194C65.9483 11.4093 66.102 11.4543 66.3033 11.4543C66.4801 11.4543 66.6358 11.4194 66.7703 11.3498C66.9047 11.2801 67.0091 11.1843 67.0833 11.0623C67.1576 10.9403 67.1947 10.8012 67.1947 10.645L67.1947 9.665C67.1947 9.46805 67.1302 9.31513 67.0012 9.20623C66.8722 9.09733 66.6984 9.04287 66.4797 9.04287C66.3152 9.04287 66.1755 9.07888 66.0606 9.15088C65.9457 9.22289 65.8664 9.31617 65.8226 9.43072L64.9883 9.43072C65.0692 9.10099 65.2387 8.83415 65.4967 8.6302C65.7547 8.42625 66.09 8.32428 66.5026 8.32428C66.8162 8.32428 67.0865 8.37795 67.3132 8.48528C67.54 8.59261 67.714 8.74886 67.8351 8.95401C67.9563 9.15916 68.0169 9.40378 68.0169 9.68786L68.0169 12.08L67.3225 12.08L67.2297 11.6357L67.1947 11.6357C67.1092 11.7696 66.976 11.8888 66.7951 11.9933C66.6141 12.0978 66.3969 12.15 66.1433 12.15Z"/>
<path d="M70.1626 12.15C69.8758 12.15 69.623 12.1046 69.4041 12.0137C69.1853 11.9228 69.0079 11.7908 68.8719 11.6178C68.736 11.4447 68.6462 11.2381 68.6026 10.9978L69.4826 10.9978C69.5126 11.1262 69.5887 11.2305 69.7106 11.3109C69.8326 11.3912 69.9833 11.4314 70.1626 11.4314C70.4077 11.4314 70.5881 11.3945 70.7039 11.3208C70.8197 11.2471 70.8776 11.1506 70.8776 11.0314C70.8776 10.942 70.8444 10.8699 70.7781 10.815C70.7118 10.7602 70.6275 10.7167 70.5252 10.6846C70.423 10.6526 70.2837 10.6178 70.1075 10.5802C69.8216 10.5196 69.5873 10.4551 69.4048 10.3867C69.2222 10.3184 69.0642 10.2061 68.9307 10.0499C68.7972 9.89379 68.7304 9.67977 68.7304 9.40786C68.7304 9.20617 68.7867 9.02335 68.8994 8.8594C69.012 8.69545 69.1766 8.56527 69.3932 8.46887C69.6099 8.37248 69.8663 8.32428 70.1626 8.32428C70.4382 8.32428 70.6812 8.36537 70.8914 8.44755C71.1017 8.52972 71.274 8.65108 71.4084 8.8116C71.5428 8.97213 71.6319 9.16636 71.6755 9.3943L70.7954 9.3943C70.7638 9.28798 70.6968 9.20284 70.5943 9.13885C70.4919 9.07487 70.348 9.04287 70.1626 9.04287C69.973 9.04287 69.8278 9.07583 69.7268 9.14175C69.6259 9.20767 69.5755 9.29637 69.5755 9.40786C69.5755 9.50054 69.6094 9.57511 69.6774 9.63159C69.7454 9.68806 69.8305 9.73312 69.9327 9.76677C70.0349 9.80042 70.1766 9.83683 70.3577 9.87598C70.642 9.93826 70.8746 10.0032 71.0555 10.0708C71.2364 10.1384 71.3928 10.249 71.5247 10.4027C71.6566 10.5564 71.7226 10.766 71.7226 11.0314C71.7226 11.2577 71.6609 11.4551 71.5374 11.6237C71.4139 11.7924 71.2353 11.9222 71.0017 12.0133C70.768 12.1044 70.4883 12.15 70.1626 12.15Z"/>
<path d="M73.7269 12.08C73.4994 12.08 73.3061 12.0388 73.1471 11.9564C72.9881 11.874 72.8666 11.7564 72.7827 11.6035C72.6988 11.4505 72.6569 11.268 72.6569 11.0557L72.6569 9.15859L72.074 9.15859L72.074 8.39428L72.6569 8.39428L72.7726 7.41428L73.4791 7.41428L73.4791 8.39428L74.3784 8.39428L74.3784 9.15859L73.4791 9.15859L73.4791 10.9414C73.4791 11.0495 73.5144 11.139 73.5851 11.2096C73.6558 11.2803 73.7452 11.3157 73.8534 11.3157L74.3784 11.3157L74.3784 12.08L73.7269 12.08Z"/>
</g>
</g>
</g>
</svg>
